<svg width="144" height="115" viewBox="0 0 144 115" fill="none" xmlns="http://www.w3.org/2000/svg">
<g opacity="0.26">
<mask id="mask0_206_458" style="mask-type:alpha" maskUnits="userSpaceOnUse" x="0" y="0" width="13" height="11">
<path d="M6.41046 10.425C9.54744 10.425 12.0905 8.09121 12.0905 5.21245C12.0905 2.33368 9.54744 0 6.41046 0C3.27349 0 0.730469 2.33368 0.730469 5.21245C0.730469 8.09121 3.27349 10.425 6.41046 10.425Z" fill="black"/>
</mask>
<g mask="url(#mask0_206_458)">
<path d="M6.41046 10.425C9.54744 10.425 12.0905 8.09121 12.0905 5.21245C12.0905 2.33368 9.54744 0 6.41046 0C3.27349 0 0.730469 2.33368 0.730469 5.21245C0.730469 8.09121 3.27349 10.425 6.41046 10.425Z" fill="black"/>
</g>
<mask id="mask1_206_458" style="mask-type:alpha" maskUnits="userSpaceOnUse" x="33" y="0" width="12" height="11">
<path d="M39.307 10.425C42.4439 10.425 44.987 8.09121 44.987 5.21245C44.987 2.33368 42.4439 0 39.307 0C36.17 0 33.627 2.33368 33.627 5.21245C33.627 8.09121 36.17 10.425 39.307 10.425Z" fill="black"/>
</mask>
<g mask="url(#mask1_206_458)">
<path d="M39.307 10.425C42.4439 10.425 44.987 8.09121 44.987 5.21245C44.987 2.33368 42.4439 0 39.307 0C36.17 0 33.627 2.33368 33.627 5.21245C33.627 8.09121 36.17 10.425 39.307 10.425Z" fill="black"/>
</g>
<mask id="mask2_206_458" style="mask-type:alpha" maskUnits="userSpaceOnUse" x="66" y="0" width="12" height="11">
<path d="M72.2034 10.425C75.3404 10.425 77.8834 8.09121 77.8834 5.21245C77.8834 2.33368 75.3404 0 72.2034 0C69.0665 0 66.5234 2.33368 66.5234 5.21245C66.5234 8.09121 69.0665 10.425 72.2034 10.425Z" fill="black"/>
</mask>
<g mask="url(#mask2_206_458)">
<path d="M72.2034 10.425C75.3404 10.425 77.8834 8.09121 77.8834 5.21245C77.8834 2.33368 75.3404 0 72.2034 0C69.0665 0 66.5234 2.33368 66.5234 5.21245C66.5234 8.09121 69.0665 10.425 72.2034 10.425Z" fill="black"/>
</g>
<mask id="mask3_206_458" style="mask-type:alpha" maskUnits="userSpaceOnUse" x="99" y="0" width="12" height="11">
<path d="M105.1 10.425C108.237 10.425 110.78 8.09121 110.78 5.21245C110.78 2.33368 108.237 0 105.1 0C101.963 0 99.4204 2.33368 99.4204 5.21245C99.4204 8.09121 101.963 10.425 105.1 10.425Z" fill="black"/>
</mask>
<g mask="url(#mask3_206_458)">
<path d="M105.1 10.425C108.237 10.425 110.78 8.09121 110.78 5.21245C110.78 2.33368 108.237 0 105.1 0C101.963 0 99.4204 2.33368 99.4204 5.21245C99.4204 8.09121 101.963 10.425 105.1 10.425Z" fill="black"/>
</g>
<mask id="mask4_206_458" style="mask-type:alpha" maskUnits="userSpaceOnUse" x="132" y="0" width="12" height="11">
<path d="M137.997 10.425C141.134 10.425 143.677 8.09121 143.677 5.21245C143.677 2.33368 141.134 0 137.997 0C134.86 0 132.317 2.33368 132.317 5.21245C132.317 8.09121 134.86 10.425 137.997 10.425Z" fill="black"/>
</mask>
<g mask="url(#mask4_206_458)">
<path d="M137.997 10.425C141.134 10.425 143.677 8.09121 143.677 5.21245C143.677 2.33368 141.134 0 137.997 0C134.86 0 132.317 2.33368 132.317 5.21245C132.317 8.09121 134.86 10.425 137.997 10.425Z" fill="black"/>
</g>
<mask id="mask5_206_458" style="mask-type:alpha" maskUnits="userSpaceOnUse" x="0" y="26" width="13" height="11">
<path d="M6.41046 36.5967C9.54744 36.5967 12.0905 34.2631 12.0905 31.3843C12.0905 28.5056 9.54744 26.1719 6.41046 26.1719C3.27349 26.1719 0.730469 28.5056 0.730469 31.3843C0.730469 34.2631 3.27349 36.5967 6.41046 36.5967Z" fill="black"/>
</mask>
<g mask="url(#mask5_206_458)">
<path d="M6.41046 36.5967C9.54744 36.5967 12.0905 34.2631 12.0905 31.3843C12.0905 28.5056 9.54744 26.1719 6.41046 26.1719C3.27349 26.1719 0.730469 28.5056 0.730469 31.3843C0.730469 34.2631 3.27349 36.5967 6.41046 36.5967Z" fill="black"/>
</g>
<mask id="mask6_206_458" style="mask-type:alpha" maskUnits="userSpaceOnUse" x="33" y="26" width="12" height="11">
<path d="M39.307 36.5967C42.4439 36.5967 44.987 34.2631 44.987 31.3843C44.987 28.5056 42.4439 26.1719 39.307 26.1719C36.17 26.1719 33.627 28.5056 33.627 31.3843C33.627 34.2631 36.17 36.5967 39.307 36.5967Z" fill="black"/>
</mask>
<g mask="url(#mask6_206_458)">
<path d="M39.307 36.5967C42.4439 36.5967 44.987 34.2631 44.987 31.3843C44.987 28.5056 42.4439 26.1719 39.307 26.1719C36.17 26.1719 33.627 28.5056 33.627 31.3843C33.627 34.2631 36.17 36.5967 39.307 36.5967Z" fill="black"/>
</g>
<mask id="mask7_206_458" style="mask-type:alpha" maskUnits="userSpaceOnUse" x="66" y="26" width="12" height="11">
<path d="M72.2034 36.5967C75.3404 36.5967 77.8834 34.2631 77.8834 31.3843C77.8834 28.5056 75.3404 26.1719 72.2034 26.1719C69.0665 26.1719 66.5234 28.5056 66.5234 31.3843C66.5234 34.2631 69.0665 36.5967 72.2034 36.5967Z" fill="black"/>
</mask>
<g mask="url(#mask7_206_458)">
<path d="M72.2034 36.5967C75.3404 36.5967 77.8834 34.2631 77.8834 31.3843C77.8834 28.5056 75.3404 26.1719 72.2034 26.1719C69.0665 26.1719 66.5234 28.5056 66.5234 31.3843C66.5234 34.2631 69.0665 36.5967 72.2034 36.5967Z" fill="black"/>
</g>
<mask id="mask8_206_458" style="mask-type:alpha" maskUnits="userSpaceOnUse" x="99" y="26" width="12" height="11">
<path d="M105.1 36.5967C108.237 36.5967 110.78 34.2631 110.78 31.3843C110.78 28.5056 108.237 26.1719 105.1 26.1719C101.963 26.1719 99.4204 28.5056 99.4204 31.3843C99.4204 34.2631 101.963 36.5967 105.1 36.5967Z" fill="black"/>
</mask>
<g mask="url(#mask8_206_458)">
<path d="M105.1 36.5967C108.237 36.5967 110.78 34.2631 110.78 31.3843C110.78 28.5056 108.237 26.1719 105.1 26.1719C101.963 26.1719 99.4204 28.5056 99.4204 31.3843C99.4204 34.2631 101.963 36.5967 105.1 36.5967Z" fill="black"/>
</g>
<mask id="mask9_206_458" style="mask-type:alpha" maskUnits="userSpaceOnUse" x="132" y="26" width="12" height="11">
<path d="M137.997 36.5967C141.134 36.5967 143.677 34.2631 143.677 31.3843C143.677 28.5056 141.134 26.1719 137.997 26.1719C134.86 26.1719 132.317 28.5056 132.317 31.3843C132.317 34.2631 134.86 36.5967 137.997 36.5967Z" fill="black"/>
</mask>
<g mask="url(#mask9_206_458)">
<path d="M137.997 36.5967C141.134 36.5967 143.677 34.2631 143.677 31.3843C143.677 28.5056 141.134 26.1719 137.997 26.1719C134.86 26.1719 132.317 28.5056 132.317 31.3843C132.317 34.2631 134.86 36.5967 137.997 36.5967Z" fill="black"/>
</g>
<mask id="mask10_206_458" style="mask-type:alpha" maskUnits="userSpaceOnUse" x="0" y="52" width="13" height="11">
<path d="M6.41046 62.7121C9.54744 62.7121 12.0905 60.3784 12.0905 57.4996C12.0905 54.6208 9.54744 52.2871 6.41046 52.2871C3.27349 52.2871 0.730469 54.6208 0.730469 57.4996C0.730469 60.3784 3.27349 62.7121 6.41046 62.7121Z" fill="black"/>
</mask>
<g mask="url(#mask10_206_458)">
<path d="M6.41046 62.7121C9.54744 62.7121 12.0905 60.3784 12.0905 57.4996C12.0905 54.6208 9.54744 52.2871 6.41046 52.2871C3.27349 52.2871 0.730469 54.6208 0.730469 57.4996C0.730469 60.3784 3.27349 62.7121 6.41046 62.7121Z" fill="black"/>
</g>
<mask id="mask11_206_458" style="mask-type:alpha" maskUnits="userSpaceOnUse" x="33" y="52" width="12" height="11">
<path d="M39.307 62.7121C42.4439 62.7121 44.987 60.3784 44.987 57.4996C44.987 54.6208 42.4439 52.2871 39.307 52.2871C36.17 52.2871 33.627 54.6208 33.627 57.4996C33.627 60.3784 36.17 62.7121 39.307 62.7121Z" fill="black"/>
</mask>
<g mask="url(#mask11_206_458)">
<path d="M39.307 62.7121C42.4439 62.7121 44.987 60.3784 44.987 57.4996C44.987 54.6208 42.4439 52.2871 39.307 52.2871C36.17 52.2871 33.627 54.6208 33.627 57.4996C33.627 60.3784 36.17 62.7121 39.307 62.7121Z" fill="black"/>
</g>
<mask id="mask12_206_458" style="mask-type:alpha" maskUnits="userSpaceOnUse" x="66" y="52" width="12" height="11">
<path d="M72.2034 62.7121C75.3404 62.7121 77.8834 60.3784 77.8834 57.4996C77.8834 54.6208 75.3404 52.2871 72.2034 52.2871C69.0665 52.2871 66.5234 54.6208 66.5234 57.4996C66.5234 60.3784 69.0665 62.7121 72.2034 62.7121Z" fill="black"/>
</mask>
<g mask="url(#mask12_206_458)">
<path d="M72.2034 62.7121C75.3404 62.7121 77.8834 60.3784 77.8834 57.4996C77.8834 54.6208 75.3404 52.2871 72.2034 52.2871C69.0665 52.2871 66.5234 54.6208 66.5234 57.4996C66.5234 60.3784 69.0665 62.7121 72.2034 62.7121Z" fill="black"/>
</g>
<mask id="mask13_206_458" style="mask-type:alpha" maskUnits="userSpaceOnUse" x="99" y="52" width="12" height="11">
<path d="M105.1 62.7121C108.237 62.7121 110.78 60.3784 110.78 57.4996C110.78 54.6208 108.237 52.2871 105.1 52.2871C101.963 52.2871 99.4204 54.6208 99.4204 57.4996C99.4204 60.3784 101.963 62.7121 105.1 62.7121Z" fill="black"/>
</mask>
<g mask="url(#mask13_206_458)">
<path d="M105.1 62.7121C108.237 62.7121 110.78 60.3784 110.78 57.4996C110.78 54.6208 108.237 52.2871 105.1 52.2871C101.963 52.2871 99.4204 54.6208 99.4204 57.4996C99.4204 60.3784 101.963 62.7121 105.1 62.7121Z" fill="black"/>
</g>
<mask id="mask14_206_458" style="mask-type:alpha" maskUnits="userSpaceOnUse" x="132" y="52" width="12" height="11">
<path d="M137.997 62.7121C141.134 62.7121 143.677 60.3784 143.677 57.4996C143.677 54.6208 141.134 52.2871 137.997 52.2871C134.86 52.2871 132.317 54.6208 132.317 57.4996C132.317 60.3784 134.86 62.7121 137.997 62.7121Z" fill="black"/>
</mask>
<g mask="url(#mask14_206_458)">
<path d="M137.997 62.7121C141.134 62.7121 143.677 60.3784 143.677 57.4996C143.677 54.6208 141.134 52.2871 137.997 52.2871C134.86 52.2871 132.317 54.6208 132.317 57.4996C132.317 60.3784 134.86 62.7121 137.997 62.7121Z" fill="black"/>
</g>
<mask id="mask15_206_458" style="mask-type:alpha" maskUnits="userSpaceOnUse" x="0" y="78" width="13" height="11">
<path d="M6.41046 88.8839C9.54744 88.8839 12.0905 86.5502 12.0905 83.6714C12.0905 80.7927 9.54744 78.459 6.41046 78.459C3.27349 78.459 0.730469 80.7927 0.730469 83.6714C0.730469 86.5502 3.27349 88.8839 6.41046 88.8839Z" fill="black"/>
</mask>
<g mask="url(#mask15_206_458)">
<path d="M6.41046 88.8839C9.54744 88.8839 12.0905 86.5502 12.0905 83.6714C12.0905 80.7927 9.54744 78.459 6.41046 78.459C3.27349 78.459 0.730469 80.7927 0.730469 83.6714C0.730469 86.5502 3.27349 88.8839 6.41046 88.8839Z" fill="black"/>
</g>
<mask id="mask16_206_458" style="mask-type:alpha" maskUnits="userSpaceOnUse" x="33" y="78" width="12" height="11">
<path d="M39.307 88.8839C42.4439 88.8839 44.987 86.5502 44.987 83.6714C44.987 80.7927 42.4439 78.459 39.307 78.459C36.17 78.459 33.627 80.7927 33.627 83.6714C33.627 86.5502 36.17 88.8839 39.307 88.8839Z" fill="black"/>
</mask>
<g mask="url(#mask16_206_458)">
<path d="M39.307 88.8839C42.4439 88.8839 44.987 86.5502 44.987 83.6714C44.987 80.7927 42.4439 78.459 39.307 78.459C36.17 78.459 33.627 80.7927 33.627 83.6714C33.627 86.5502 36.17 88.8839 39.307 88.8839Z" fill="black"/>
</g>
<mask id="mask17_206_458" style="mask-type:alpha" maskUnits="userSpaceOnUse" x="66" y="78" width="12" height="11">
<path d="M72.2034 88.8839C75.3404 88.8839 77.8834 86.5502 77.8834 83.6714C77.8834 80.7927 75.3404 78.459 72.2034 78.459C69.0665 78.459 66.5234 80.7927 66.5234 83.6714C66.5234 86.5502 69.0665 88.8839 72.2034 88.8839Z" fill="black"/>
</mask>
<g mask="url(#mask17_206_458)">
<path d="M72.2034 88.8839C75.3404 88.8839 77.8834 86.5502 77.8834 83.6714C77.8834 80.7927 75.3404 78.459 72.2034 78.459C69.0665 78.459 66.5234 80.7927 66.5234 83.6714C66.5234 86.5502 69.0665 88.8839 72.2034 88.8839Z" fill="black"/>
</g>
<mask id="mask18_206_458" style="mask-type:alpha" maskUnits="userSpaceOnUse" x="99" y="78" width="12" height="11">
<path d="M105.1 88.8839C108.237 88.8839 110.78 86.5502 110.78 83.6714C110.78 80.7927 108.237 78.459 105.1 78.459C101.963 78.459 99.4204 80.7927 99.4204 83.6714C99.4204 86.5502 101.963 88.8839 105.1 88.8839Z" fill="black"/>
</mask>
<g mask="url(#mask18_206_458)">
<path d="M105.1 88.8839C108.237 88.8839 110.78 86.5502 110.78 83.6714C110.78 80.7927 108.237 78.459 105.1 78.459C101.963 78.459 99.4204 80.7927 99.4204 83.6714C99.4204 86.5502 101.963 88.8839 105.1 88.8839Z" fill="black"/>
</g>
<mask id="mask19_206_458" style="mask-type:alpha" maskUnits="userSpaceOnUse" x="132" y="78" width="12" height="11">
<path d="M137.997 88.8839C141.134 88.8839 143.677 86.5502 143.677 83.6714C143.677 80.7927 141.134 78.459 137.997 78.459C134.86 78.459 132.317 80.7927 132.317 83.6714C132.317 86.5502 134.86 88.8839 137.997 88.8839Z" fill="black"/>
</mask>
<g mask="url(#mask19_206_458)">
<path d="M137.997 88.8839C141.134 88.8839 143.677 86.5502 143.677 83.6714C143.677 80.7927 141.134 78.459 137.997 78.459C134.86 78.459 132.317 80.7927 132.317 83.6714C132.317 86.5502 134.86 88.8839 137.997 88.8839Z" fill="black"/>
</g>
<mask id="mask20_206_458" style="mask-type:alpha" maskUnits="userSpaceOnUse" x="0" y="104" width="13" height="11">
<path d="M6.41046 114.999C9.54744 114.999 12.0905 112.665 12.0905 109.787C12.0905 106.908 9.54744 104.574 6.41046 104.574C3.27349 104.574 0.730469 106.908 0.730469 109.787C0.730469 112.665 3.27349 114.999 6.41046 114.999Z" fill="black"/>
</mask>
<g mask="url(#mask20_206_458)">
<path d="M6.41046 114.999C9.54744 114.999 12.0905 112.665 12.0905 109.787C12.0905 106.908 9.54744 104.574 6.41046 104.574C3.27349 104.574 0.730469 106.908 0.730469 109.787C0.730469 112.665 3.27349 114.999 6.41046 114.999Z" fill="black"/>
</g>
<mask id="mask21_206_458" style="mask-type:alpha" maskUnits="userSpaceOnUse" x="33" y="104" width="12" height="11">
<path d="M39.307 114.999C42.4439 114.999 44.987 112.665 44.987 109.787C44.987 106.908 42.4439 104.574 39.307 104.574C36.17 104.574 33.627 106.908 33.627 109.787C33.627 112.665 36.17 114.999 39.307 114.999Z" fill="black"/>
</mask>
<g mask="url(#mask21_206_458)">
<path d="M39.307 114.999C42.4439 114.999 44.987 112.665 44.987 109.787C44.987 106.908 42.4439 104.574 39.307 104.574C36.17 104.574 33.627 106.908 33.627 109.787C33.627 112.665 36.17 114.999 39.307 114.999Z" fill="black"/>
</g>
<mask id="mask22_206_458" style="mask-type:alpha" maskUnits="userSpaceOnUse" x="66" y="104" width="12" height="11">
<path d="M72.2034 114.999C75.3404 114.999 77.8834 112.665 77.8834 109.787C77.8834 106.908 75.3404 104.574 72.2034 104.574C69.0665 104.574 66.5234 106.908 66.5234 109.787C66.5234 112.665 69.0665 114.999 72.2034 114.999Z" fill="black"/>
</mask>
<g mask="url(#mask22_206_458)">
<path d="M72.2034 114.999C75.3404 114.999 77.8834 112.665 77.8834 109.787C77.8834 106.908 75.3404 104.574 72.2034 104.574C69.0665 104.574 66.5234 106.908 66.5234 109.787C66.5234 112.665 69.0665 114.999 72.2034 114.999Z" fill="black"/>
</g>
<mask id="mask23_206_458" style="mask-type:alpha" maskUnits="userSpaceOnUse" x="99" y="104" width="12" height="11">
<path d="M105.1 114.999C108.237 114.999 110.78 112.665 110.78 109.787C110.78 106.908 108.237 104.574 105.1 104.574C101.963 104.574 99.4204 106.908 99.4204 109.787C99.4204 112.665 101.963 114.999 105.1 114.999Z" fill="black"/>
</mask>
<g mask="url(#mask23_206_458)">
<path d="M105.1 114.999C108.237 114.999 110.78 112.665 110.78 109.787C110.78 106.908 108.237 104.574 105.1 104.574C101.963 104.574 99.4204 106.908 99.4204 109.787C99.4204 112.665 101.963 114.999 105.1 114.999Z" fill="black"/>
</g>
<mask id="mask24_206_458" style="mask-type:alpha" maskUnits="userSpaceOnUse" x="132" y="104" width="12" height="11">
<path d="M137.997 114.999C141.134 114.999 143.677 112.665 143.677 109.787C143.677 106.908 141.134 104.574 137.997 104.574C134.86 104.574 132.317 106.908 132.317 109.787C132.317 112.665 134.86 114.999 137.997 114.999Z" fill="url(#paint0_linear_206_458)"/>
</mask>
<g mask="url(#mask24_206_458)">
<path d="M137.997 114.999C141.134 114.999 143.677 112.665 143.677 109.787C143.677 106.908 141.134 104.574 137.997 104.574C134.86 104.574 132.317 106.908 132.317 109.787C132.317 112.665 134.86 114.999 137.997 114.999Z" fill="black"/>
</g>
</g>
<defs>
<linearGradient id="paint0_linear_206_458" x1="192.063" y1="235.708" x2="124.97" y2="50.1171" gradientUnits="userSpaceOnUse">
<stop stop-color="#020617"/>
<stop offset="1" stop-color="#93C1F9"/>
</linearGradient>
</defs>
</svg>
