<svg width="125" height="100" viewBox="0 0 125 100" fill="none" xmlns="http://www.w3.org/2000/svg">
<path d="M107.508 53.8418C106.262 59.0022 103.428 65.1369 99.0812 71.0221C92.8911 79.4041 83.6297 87.2867 71.5053 91.1472C66.3009 92.806 60.5686 93.7223 54.3248 93.6192C47.7206 93.5098 41.8834 92.3676 36.8452 90.446C20.4957 84.2102 12.5555 69.766 14.0768 55.738C14.2905 53.78 14.6857 51.8458 15.2574 49.9603C24.3341 20.0145 47.8817 34.5375 57.6027 30.2221C105.745 8.84981 111.29 38.1772 107.508 53.8418Z" fill="#E4F6F6"/>
<path d="M61.2469 28.7031L33.3209 39.8827L33.328 73.2762L61.2469 84.4648L89.1793 73.2762L89.1723 39.8827L61.2469 28.7031Z" fill="#ED8B00"/>
<path d="M60.8165 84.2921L33.5252 73.3552C33.4061 73.3071 33.328 73.1919 33.328 73.0638L33.3209 40.3338C33.3209 40.1154 33.5387 39.9636 33.7436 40.0392L61.0445 50.1403C61.1675 50.1858 61.2495 50.3036 61.2495 50.4349L61.2463 84.0007C61.2469 84.2229 61.0228 84.3747 60.8165 84.2921Z" fill="#F1B434"/>
<path d="M61.6842 84.2921L88.9755 73.3552C89.0946 73.3071 89.1727 73.1919 89.1727 73.0638L89.1798 40.3338C89.1798 40.1154 88.962 39.9636 88.7571 40.0392L61.4562 50.1403C61.3332 50.1858 61.2512 50.3036 61.2512 50.4349L61.2544 84.0007C61.2531 84.2229 61.4773 84.3747 61.6842 84.2921Z" fill="#F1B434"/>
<path d="M89.1793 39.8926L61.2469 50.2153L68.1234 55.6802C68.3476 55.8583 68.6479 55.9063 68.9163 55.807L95.0535 46.1478C95.6517 45.9269 95.7779 45.1365 95.279 44.7401L89.1793 39.8926Z" fill="#F1B434"/>
<path d="M33.3143 39.8926L61.2467 50.2153L54.3702 55.6802C54.1461 55.8583 53.8457 55.9063 53.5774 55.807L27.4401 46.1478C26.842 45.9269 26.7158 45.1365 27.2147 44.7401L33.3143 39.8926Z" fill="#F1B434"/>
<path d="M89.1824 39.8934L61.25 28.7593L68.1162 23.3027C68.3461 23.1201 68.6555 23.0747 68.9283 23.1829L95.1097 33.619C95.6932 33.8515 95.8078 34.6283 95.316 35.0196L89.1824 39.8934Z" fill="#F1B434"/>
<path d="M33.3176 39.8934L61.25 28.7593L54.3838 23.3027C54.1539 23.1201 53.8445 23.0747 53.5717 23.1829L27.3903 33.619C26.8068 33.8515 26.6922 34.6283 27.184 35.0196L33.3176 39.8934Z" fill="#F1B434"/>
</svg>
