<svg width="200" height="160" viewBox="0 0 200 160" fill="none" xmlns="http://www.w3.org/2000/svg">
<path d="M173.784 72.8375C171.791 81.0942 167.257 90.9096 160.301 100.326C150.397 113.737 135.579 126.349 116.18 132.526C107.853 135.18 98.6812 136.646 88.6912 136.481C78.1245 136.306 68.7849 134.479 60.7238 131.404C34.5646 121.427 21.8603 98.3163 24.2944 75.8714C24.6363 72.7386 25.2687 69.644 26.1834 66.6271C40.7061 18.7138 78.3822 41.9507 93.9358 35.046C170.963 0.850325 179.835 47.7741 173.784 72.8375Z" fill="#E4F6F6"/>
<path d="M60.708 51.4385H138.034L132.964 128.977C132.485 136.303 126.403 142 119.061 142H80.2776C72.9768 142 66.9141 136.364 66.382 129.083L60.708 51.4385Z" fill="#F1B434"/>
<path d="M66.6292 38.8989H132.112L122.711 20.7036C121.868 19.0714 119.816 18 117.532 18H80.9061C78.6002 18 76.5324 19.0924 75.7046 20.748L66.6292 38.8989Z" fill="#ED8B00"/>
<path d="M79.1687 41.6852H121.663L115.563 30.1615C115.015 29.1278 113.683 28.4492 112.202 28.4492H88.4336C86.9371 28.4492 85.5953 29.1411 85.0581 30.1896L79.1687 41.6852Z" fill="#995C00"/>
<path d="M137.533 59.1016H61.2676L60.708 51.4385H138.034L137.533 59.1016Z" fill="#ED8B00"/>
<path d="M120.27 141.948C119.871 141.982 119.468 142 119.061 142H80.2776C79.9044 142 79.5347 141.985 79.1687 141.956V133.64C79.1687 127.484 84.1591 122.494 90.3148 122.494H109.124C115.279 122.494 120.27 127.484 120.27 133.64V141.948Z" fill="#ED8B00"/>
<path d="M65.1023 38.8984H100.416H131.55C135.901 38.8984 139.829 41.5062 141.517 45.5164L144.652 52.831H100.416H52.0002L55.1351 45.5164C56.8236 41.5062 60.7511 38.8984 65.1023 38.8984Z" fill="#F1B434"/>
<rect x="86.135" y="81.3936" width="5.57303" height="30.6517" rx="2.78652" fill="#ED8B00"/>
<rect x="96.5845" y="81.3936" width="5.57303" height="30.6517" rx="2.78652" fill="#ED8B00"/>
<rect x="107.034" y="81.3936" width="5.57303" height="30.6517" rx="2.78652" fill="#ED8B00"/>
<path d="M135.696 146.418C135.696 146.418 135.697 146.418 135.696 146.418C126.634 146.418 119.009 145.988 113.068 145.46C109.406 145.135 107.113 141.296 108.517 137.857C112.411 128.315 117.219 118.889 122.859 109.747C126.698 103.525 130.404 98.2797 133.538 94.153C135.724 91.2751 140 91.2743 142.186 94.1521C145.304 98.2581 148.991 103.473 152.811 109.658C158.422 118.742 163.212 128.109 167.099 137.592C168.511 141.034 166.209 144.878 162.542 145.205C153.485 146.011 144.485 146.418 135.696 146.418Z" fill="#C71147"/>
<path d="M136.28 106.695C137.3 106.591 138.32 106.591 139.34 106.695C140.63 106.826 141.617 107.917 141.665 109.229C141.821 113.521 141.821 117.812 141.665 122.104C141.618 123.416 140.63 124.507 139.34 124.638C138.32 124.742 137.3 124.742 136.28 124.638C134.99 124.507 134.003 123.416 133.955 122.104C133.8 117.812 133.8 113.521 133.955 109.229C134.003 107.917 134.99 106.826 136.28 106.695Z" fill="white"/>
<path d="M136.355 129.35C137.325 129.303 138.295 129.303 139.266 129.35C140.603 129.415 141.677 130.505 141.738 131.859C141.797 133.179 141.797 134.499 141.738 135.82C141.677 137.174 140.603 138.264 139.266 138.329C138.295 138.376 137.325 138.376 136.355 138.329C135.017 138.264 133.943 137.174 133.883 135.82C133.824 134.499 133.824 133.179 133.883 131.859C133.943 130.505 135.017 129.415 136.355 129.35Z" fill="white"/>
</svg>
