<svg width="74" height="60" viewBox="0 0 74 60" fill="none" xmlns="http://www.w3.org/2000/svg">
<mask id="mask0_248_5465" style="mask-type:alpha" maskUnits="userSpaceOnUse" x="0" y="0" width="74" height="60">
<path d="M72.9049 22.7453C71.9328 27.5775 69.5277 34.4891 66.1355 40C61.3054 47.8489 54.2727 54.0629 44.8119 57.6778C40.7509 59.2312 36.2779 60.0892 31.4058 59.9926C26.2525 59.8902 21.6977 58.8206 17.7664 57.0212C1.94949 50.4651 0 35.3488 0 24.5209C0.166738 22.6874 0.475132 20.8763 0.921237 19.1107C12.5337 -2.20867 24.417 7.03709 32.0024 2.99615C64.1483 -6.422 75.8561 8.07705 72.9049 22.7453Z" fill="#D0EAF4"/>
</mask>
<g mask="url(#mask0_248_5465)">
<path fill-rule="evenodd" clip-rule="evenodd" d="M19.3369 60.3512L43.6811 60.3113L46.3328 42.5666L39.9726 28.8493L38.0985 27.6132L36.8025 27.673L26.8934 26.2773L26.375 28.7098C26.375 28.7098 19.4366 28.4905 20.5531 29.0487C18.9581 28.2711 19.3369 60.3512 19.3369 60.3512Z" fill="white"/>
<path fill-rule="evenodd" clip-rule="evenodd" d="M32.6954 24.9819C30.0437 24.2641 27.6511 24.5233 27.3521 25.6C27.053 26.6567 28.967 28.3115 31.6188 29.0293C34.2705 29.7471 36.4438 29.2287 36.7229 28.152C37.0219 27.0953 35.3472 25.7196 32.6954 24.9819Z" fill="#010202"/>
<path fill-rule="evenodd" clip-rule="evenodd" d="M34.52 8.21432C33.8141 8.28874 32.9484 7.28742 32.153 7.7538C29.7914 7.18703 27.4063 9.30352 26.9486 13.6072C26.8448 14.613 24.9306 14.7876 25.0566 15.6358C25.3483 17.6011 26.4416 19.1415 27.8165 20.306L28.5957 25.413C28.5957 25.413 29.1418 25.8245 30.8182 26.4629C30.8565 26.4366 30.9422 26.4461 30.9422 26.4461C34.918 27.0899 33.5728 25.4149 33.8651 24.8266C34.0654 24.1875 35.4213 25.6501 35.4213 25.6501L35.8529 23.0171C38.0554 22.086 38.6798 19.0471 38.5209 15.9876C38.2857 11.9887 37.6033 7.81821 34.52 8.21432Z" fill="#F5C5A6"/>
<path d="M27.3922 15.8882C27.0472 16.5469 27.4502 17.2732 27.5258 18.6347C28.7379 22.3958 33.9473 23.2525 35.8492 22.9952C36.9392 23.9451 36.0918 25.0827 36.6151 27.7553C34.9645 29.4042 30.0986 30.0802 27.501 28.9571C27.1123 23.9239 25.4063 24.3871 26.64 20.907C23.1454 19.1008 19.2625 13.4008 22.2929 8.81232C24.7723 5.05814 32.9852 4.98088 36.4359 7.91155C38.6303 9.76712 38.5281 12.6299 38.3433 13.9421C38.3263 13.5435 38.0003 10.2111 36.4386 8.92413C35.812 8.39692 33.6317 7.48908 30.7975 8.56898C28.5443 9.44364 26.4561 12.8495 27.3922 15.8882Z" fill="#00BFB2"/>
<path d="M36.5201 26.0918C32.7269 26.394 28.6464 22.3457 28.3652 20.1679C30.6496 22.771 34.3642 23.218 35.8527 23.0166C36.7075 23.6607 36.476 25.0848 36.5201 26.0918Z" fill="#007C80"/>
<path d="M38.3462 13.9606C38.3462 13.9606 37.6939 10.4191 36.4017 9.24339C34.7916 7.77301 31.1423 7.90805 29.3277 10.0318C26.9965 12.7952 27.7088 19.1563 27.7088 19.1563C26.6088 17.9968 26.2979 14.1981 26.2737 13.0407C26.2042 9.58919 29.0682 6.43715 32.4649 6.58952C39.6221 6.92945 38.3462 13.9606 38.3462 13.9606Z" fill="white"/>
<path d="M37.0306 12.1992C37.0306 12.1992 36.1453 11.918 35.4832 12.4296" stroke="#010202" stroke-width="0.465116" stroke-miterlimit="10" stroke-linecap="round"/>
<path d="M34.4268 14.4082C34.4268 14.4082 36.3464 16.2588 34.819 16.9086" stroke="#010202" stroke-width="0.465116" stroke-miterlimit="10" stroke-linecap="round"/>
<path d="M35.7617 14.1655C36.0724 13.7014 36.7515 13.5884 37.2853 13.9171L37.6329 13.7013" stroke="black" stroke-width="0.697674" stroke-linecap="round" stroke-linejoin="round"/>
<path fill-rule="evenodd" clip-rule="evenodd" d="M28.8173 35.1678C27.8403 30.5422 28.4584 26.8936 24.75 26.8936C22.7163 26.8936 17.5524 27.2126 17.6321 33.9914C17.7119 40.6108 16.8944 47.6688 14.462 50.7393C7.32426 59.7313 7.06506 63.998 7.06506 63.998C7.06506 63.998 11.8302 68.4242 26.6042 71.8934C31.5887 63.021 30.8908 57.239 30.8908 54.5075L28.8173 35.1678Z" fill="#0047BB"/>
<path fill-rule="evenodd" clip-rule="evenodd" d="M23.8729 25.4186C23.9327 25.2192 24.0324 25.0198 24.1122 24.8404C24.5109 24.0628 25.3284 23.5643 26.2056 23.5643L26.2639 23.3652L26.7838 24.9201C27.5215 25.4784 29.1166 26.9139 29.615 28.3095C30.6119 31.1607 29.4755 44.3197 29.8942 45.3963C28.3191 43.0835 22.557 27.193 22.557 27.193C22.557 27.193 23.4941 26.6148 23.8729 25.4186Z" fill="#0047BB"/>
<path fill-rule="evenodd" clip-rule="evenodd" d="M26.8036 24.9211C26.026 24.6419 25.6073 24.4027 25.6273 24.1834C25.6273 23.984 25.6807 23.8735 26.538 23.9134C26.538 23.9134 26.8435 24.5821 26.8036 24.9211Z" fill="#010202"/>
<path d="M58.3066 57.981C58.6562 56.7693 58.6485 56.3596 57.9243 55.327C56.6338 53.4869 54.0397 51.4962 52.3421 50.0232C45.5755 44.1518 47.0871 27.8941 40.1322 27.8941C39.9528 27.8941 39.7933 27.914 39.6338 27.914C38.3378 26.0399 36.8425 25.2423 36.5035 25.043L36.3241 27.8741C36.3041 28.0536 39.3347 30.825 41.488 36.8063C41.9067 37.9627 42.126 39.159 42.1659 40.3752C42.3653 46.0974 42.1459 55.6676 42.5048 61.0907C42.8637 66.6334 47.9145 71.841 47.9145 71.841L53.8 69.0073L49.5828 61.9879C49.5828 62.0078 51.3772 62.2471 54.6071 61.31C57.0301 60.6086 57.9633 59.1709 58.3066 57.981Z" fill="#0047BB"/>
<path d="M43.9827 47.1074C44.0472 50.2057 46.5002 54.918 49.2112 56.209C52.6967 57.8872 52.4383 59.8239 52.051 60.7275C51.7284 60.8566 51.406 60.9861 51.0188 61.1797C50.9543 61.1797 50.8246 61.2441 50.76 61.2441C48.6944 61.0505 44.0472 60.2754 44.0471 56.79C44.0471 52.078 43.9827 47.882 43.9827 47.1074Z" fill="#010189"/>
<path fill-rule="evenodd" clip-rule="evenodd" d="M38.8364 31.3025C37.8794 29.9866 36.3242 27.8732 36.3242 27.8732L36.5037 25.042C36.5037 25.042 37.3411 25.4607 38.2582 26.318L38.8364 31.3025Z" fill="#010202"/>
<path fill-rule="evenodd" clip-rule="evenodd" d="M52.3736 36.6477C51.1319 42.2732 46.5977 41.0879 46.5977 41.0879L44.5281 38.4382C44.5281 33.7797 42.3967 33.7323 42.9799 31.5875C42.9799 31.5875 40.5721 29.1343 42.9803 29.9433L44.2082 31.2668C44.3211 30.646 44.434 29.931 44.5281 29.2349C44.9232 26.2622 45.243 25.0581 46.5977 24.1551C46.8422 23.9857 47.1433 23.854 47.4443 23.76L47.7265 20.8438H52.8628L52.7123 24.0422C53.2767 24.3432 54.0481 24.9453 54.3303 26.0365C54.97 28.5764 53.5213 31.5114 52.3736 36.6477Z" fill="#0047BB"/>
<path fill-rule="evenodd" clip-rule="evenodd" d="M50.2853 20.3584C51.6964 20.3584 52.844 20.5842 52.844 20.8476C52.844 21.111 51.6964 21.3367 50.2853 21.3367C48.8742 21.3367 47.7266 21.111 47.7266 20.8476C47.7266 20.5654 48.8742 20.3584 50.2853 20.3584Z" fill="#010189"/>
<path fill-rule="evenodd" clip-rule="evenodd" d="M48.2911 20.7697V11.5507C48.2911 11.5507 49.42 11.0804 50.737 10.7982C52.4491 10.4219 53.5591 10.4219 53.5591 10.4219H55.115C55.115 10.4219 56.0802 11.5507 54.4998 11.5507C53.4651 11.5507 53.5591 11.7389 53.5591 11.7389C53.5591 11.7389 53.5591 15.2195 53.5591 16.6306C53.5591 18.6249 52.2421 19.4527 52.2421 19.4527V20.7697C52.2421 20.7697 50.0785 21.1836 48.2911 20.7697Z" fill="#F5C5A6"/>
<path fill-rule="evenodd" clip-rule="evenodd" d="M54.9059 19.4163C51.5005 19.4163 45.1225 19.4163 45.1225 19.4163C44.5393 19.4163 43.9748 19.0777 43.5045 18.5132L35.0569 17.5913C34.135 17.5913 33.2695 16.4249 33.2695 14.9385C33.2695 13.4334 34.0221 12.2105 34.944 12.2105C40.8893 11.5708 43.4104 11.3074 43.4104 11.3074C43.8431 10.743 44.3699 10.4043 44.9532 10.4043C48.0199 10.4043 55.0752 10.4043 55.0752 10.4043C55.0752 10.4043 57.4646 10.9311 57.4646 14.9573C57.4646 17.4785 56.317 19.4163 54.9059 19.4163Z" fill="#0047BB"/>
<path fill-rule="evenodd" clip-rule="evenodd" d="M40.1364 12.2297L50.6911 11.082V18.7582L40.1364 17.6106V12.2297Z" fill="#0047BB"/>
<path fill-rule="evenodd" clip-rule="evenodd" d="M54.6797 19.1338C53.3815 19.1338 52.3279 17.2712 52.3279 14.957C52.3279 12.6429 53.3815 10.7991 54.6797 10.7991C55.9778 10.7991 57.0314 12.6617 57.0314 14.9759C57.0314 17.29 55.9778 19.1338 54.6797 19.1338ZM49.5998 19.1338C48.3016 19.1338 47.248 17.2712 47.248 14.957C47.248 12.6617 48.3016 10.7803 49.5998 10.7803C50.898 10.7803 51.9516 12.6429 51.9516 14.957C51.9516 17.2712 50.898 19.1338 49.5998 19.1338Z" fill="#0047BB"/>
<path fill-rule="evenodd" clip-rule="evenodd" d="M47.248 14.9579C47.248 12.926 48.0759 11.2327 49.1483 10.8564C49.9949 11.5902 50.597 13.1518 50.597 14.9579C50.597 16.7641 50.0137 18.3069 49.1483 19.0594C48.0759 18.6832 47.248 16.9899 47.248 14.9579ZM52.3279 14.9579C52.3279 13.0013 53.0805 11.3644 54.1152 10.9129C54.9431 11.6655 55.4887 13.1894 55.4887 14.9579C55.4887 16.7077 54.9243 18.2316 54.1152 19.003C53.0805 18.5515 52.3279 16.9146 52.3279 14.9579Z" fill="#010189"/>
<path d="M45.123 19.6031C43.5238 19.6031 42.188 17.4771 42.188 14.956C42.188 12.3032 43.3921 10.2148 44.9349 10.2148C45.0477 10.2148 45.123 10.2901 45.123 10.403C45.123 10.5159 45.0477 10.5911 44.9349 10.5911C43.6367 10.5911 42.5643 12.5478 42.5643 14.956C42.5643 16.9692 43.6179 19.2269 45.123 19.2269C45.2359 19.2269 45.3111 19.3021 45.3111 19.415C45.3111 19.5279 45.2359 19.6031 45.123 19.6031Z" fill="#010189"/>
<path fill-rule="evenodd" clip-rule="evenodd" d="M40.1933 36.6477C38.9516 42.2732 34.4174 41.6259 34.4174 41.6259L21.1628 36.6477C19.018 35.9139 17.8797 33.3176 18.4629 31.1728C19.1026 28.7645 21.5452 26.8643 23.9534 27.6733L31.8742 30.74C31.9871 30.1192 32.2537 29.931 32.3478 29.2349C32.7429 26.2622 33.0628 25.0581 34.4174 24.1551C34.662 23.9857 34.963 23.854 35.264 23.76L35.5462 20.8438H40.6825L40.532 24.0422C41.0964 24.3432 41.8678 24.9453 42.15 26.0365C42.7897 28.5764 41.341 31.5114 40.1933 36.6477Z" fill="#0047BB"/>
<path fill-rule="evenodd" clip-rule="evenodd" d="M38.105 20.3584C39.5161 20.3584 40.6637 20.5842 40.6637 20.8476C40.6637 21.111 39.5161 21.3367 38.105 21.3367C36.6939 21.3367 35.5463 21.111 35.5463 20.8476C35.5463 20.5654 36.6939 20.3584 38.105 20.3584Z" fill="#010189"/>
<path fill-rule="evenodd" clip-rule="evenodd" d="M44.1069 10.4219H41.3788C41.3788 10.4219 40.2688 10.4219 38.5567 10.7982C37.2397 11.0804 36.1108 11.5507 36.1108 11.5507V20.7697C37.8982 21.1836 40.0618 20.7697 40.0618 20.7697V19.4527C40.0618 19.4527 41.3788 18.6249 41.3788 16.6306C41.3788 15.2195 41.3788 11.7389 41.3788 11.7389C41.3788 11.7389 42.0185 11.6448 42.9968 11.5695C43.2979 11.0427 43.693 10.6476 44.1069 10.4219Z" fill="#F5C5A6"/>
<path d="M23.9532 37.208L32.3253 40.4638" stroke="#010189" stroke-width="0.647093" stroke-miterlimit="10" stroke-linecap="round"/>
</g>
</svg>
